<?xml version="1.0" standalone="no"?>
<!DOCTYPE svg PUBLIC "-//W3C//DTD SVG 20010904//EN"
 "http://www.w3.org/TR/2001/REC-SVG-20010904/DTD/svg10.dtd">
<svg version="1.0" xmlns="http://www.w3.org/2000/svg"
 width="104.000000pt" height="38.000000pt" viewBox="0 0 104.000000 38.000000"
 preserveAspectRatio="xMidYMid meet">

<g transform="translate(0.000000,38.000000) scale(0.100000,-0.100000)"
fill="#000000" stroke="none">
<path d="M550 361 c0 -5 6 -11 13 -14 17 -5 17 -269 -1 -275 -26 -8 -10 -22
28 -22 38 0 52 12 30 25 -6 4 -10 65 -10 151 l0 144 -30 0 c-16 0 -30 -4 -30
-9z"/>
<path d="M910 361 c0 -5 6 -11 13 -14 17 -5 17 -269 -1 -275 -26 -8 -10 -22
28 -22 38 0 52 12 30 25 -6 4 -10 65 -10 151 l0 144 -30 0 c-16 0 -30 -4 -30
-9z"/>
<path d="M851 305 c-7 -16 -20 -39 -29 -49 -13 -14 -14 -20 -4 -23 8 -3 12
-32 12 -97 0 -67 4 -98 16 -114 19 -28 60 -29 74 -2 6 12 7 20 1 20 -5 0 -11
-5 -13 -12 -9 -25 -36 2 -43 42 -10 59 3 160 21 160 8 0 14 5 14 10 0 6 -6 10
-14 10 -10 0 -16 14 -18 43 l-4 42 -13 -30z"/>
<path d="M435 235 c-20 -20 -25 -34 -25 -78 0 -66 26 -107 69 -107 41 0 64 31
69 95 4 50 2 57 -26 85 -37 36 -55 38 -87 5z m65 -14 c14 -28 12 -114 -4 -136
-8 -11 -19 -16 -30 -12 -13 5 -16 21 -16 75 0 83 25 119 50 73z"/>
<path d="M675 235 c-20 -20 -25 -34 -25 -78 0 -66 26 -107 69 -107 41 0 64 31
69 95 4 50 2 57 -26 85 -37 36 -55 38 -87 5z m65 -14 c14 -28 12 -114 -4 -136
-8 -11 -19 -16 -30 -12 -13 5 -16 21 -16 75 0 83 25 119 50 73z"/>
<path d="M86 234 c-9 -8 -16 -26 -16 -40 0 -19 5 -24 25 -24 18 0 25 5 25 19
0 11 -5 23 -11 27 -8 4 -6 10 6 17 14 7 21 5 32 -9 21 -29 12 -47 -40 -74 -41
-22 -47 -29 -47 -56 0 -20 6 -34 16 -38 25 -10 72 -7 79 4 4 7 11 8 18 2 7 -5
36 -10 65 -11 49 -1 53 1 47 19 -7 22 2 60 14 60 14 0 34 -54 22 -58 -26 -9
-8 -22 29 -22 39 0 54 13 27 23 -7 2 -21 21 -32 40 -18 35 -18 37 0 76 10 23
22 41 27 41 4 0 8 5 8 10 0 6 -13 10 -30 10 -30 0 -41 -15 -18 -22 10 -4 10
-11 -1 -34 l-13 -29 -9 24 c-5 13 -7 32 -4 42 6 16 1 19 -34 19 -23 0 -41 -4
-41 -10 0 -5 4 -10 9 -10 5 0 19 -16 31 -35 25 -40 22 -69 -10 -106 -17 -21
-21 -22 -30 -9 -8 12 -12 13 -19 2 -5 -8 -10 16 -14 63 -3 42 -11 83 -17 91
-16 19 -75 18 -94 -2z m59 -150 c-44 -33 -61 22 -17 56 l27 22 3 -33 c3 -22
-2 -37 -13 -45z"/>
</g>
</svg>
